# xmcd
# 
# Track frame offsets:
#     150
#     10430
#     21220
#     31640
#     45880
#     59770
#     71577
#     81012
#     95702
#     109117
#     121727
#     132475
#     144832
#     157065
#     167842
#     180792
#     193560
#     204925
# 
# Disc length: 2893
# 
# Revision: 3
# Processed by: cddbd v1.5.2PL0 Copyright (c) Steve Scherf et al.
# Submitted via: fre:ac v1.1beta1pre5
# 
DISCID=e80b4b12
DTITLE=Various Artist - The Many Sides Of Country [CD3]
DYEAR=1998
DGENRE=Country
TTITLE0=Hank Thompson And The Brazos Valley Boys - Tuxedo Junction
TTITLE1=Conway Twitty - Boogie Grass Band
TTITLE2=Floyd Cramer - Don't Get Around Much Anymore
TTITLE3=Joe Bob's Nashville Sound Company - In The Mood
TTITLE4=John Anderson - Swingin'
TTITLE5=Hank Thompson - Jersey Bounce
TTITLE6=Boots Randolph - Yakety Sax
TTITLE7=Asleep At The Wheel - Bump Bounce Boogle
TTITLE8=Chet Atkins With Les Paul - It Don't Mean A Thing (If It Ain't Got That Swing)
TTITLE9=Slim Whitman - South Of The Border (Down Mexico Way)
TTITLE10=Hank Locklin - Mexicali Rose
TTITLE11=Faron Young - Mexican Joe
TTITLE12=Jim Reeves - Maria Elena
TTITLE13=Danny Davis And The Nashville Brass - The Nashville Sounds - El Rancho Grande
TTITLE14=Johnny Rodriguez - Love Me With All Your Heart (Cuando Callenta El Sol)
TTITLE15=Charlie Walker - San Antonio Rose
TTITLE16=Burl Ives - My Adobe Hacienda
TTITLE17=Freddy Fender - Vaya Con Dios
EXTD=
EXTT0=
EXTT1=
EXTT2=
EXTT3=
EXTT4=
EXTT5=
EXTT6=
EXTT7=
EXTT8=
EXTT9=
EXTT10=
EXTT11=
EXTT12=
EXTT13=
EXTT14=
EXTT15=
EXTT16=
EXTT17=
PLAYORDER=
